HIERARCHY
ROOT Pelvis
{
	OFFSET 0.000000 0.000000 0.000000
	CHANNELS 6 Xposition Yposition Zposition Xrotation Yrotation Zrotation
	JOINT LeftUpLeg_virtual
	{
		OFFSET 0.000000 0.000000 0.000000
		CHANNELS 3 Xrotation Yrotation Zrotation
		JOINT LeftUpLeg
		{
			OFFSET 18.735201 -5.666702 -4.541200
			CHANNELS 3 Xrotation Yrotation Zrotation
			JOINT LeftLeg
			{
				OFFSET -0.021200 -31.938179 0.493100
				CHANNELS 3 Xrotation Yrotation Zrotation
				JOINT LeftFoot
				{
					OFFSET 0.021200 -31.938179 -4.336299
					CHANNELS 3 Xrotation Yrotation Zrotation
					JOINT LeftToeBase
					{
						OFFSET 0.943001 -26.722000 15.023500
						CHANNELS 3 Xrotation Yrotation Zrotation
						End Site
						{
							OFFSET 0 0 0
						}
					}
				}
			}
		}
	}
	JOINT RightUpLeg_virtual
	{
		OFFSET 0.000000 0.000000 0.000000
		CHANNELS 3 Xrotation Yrotation Zrotation
		JOINT RightUpLeg
		{
			OFFSET -18.735201 -5.666702 -4.541200
			CHANNELS 3 Xrotation Yrotation Zrotation
			JOINT RightLeg
			{
				OFFSET 0.018946 -31.938133 0.493100
				CHANNELS 3 Xrotation Yrotation Zrotation
				JOINT RightFoot
				{
					OFFSET -0.018946 -31.938126 -4.336299
					CHANNELS 3 Xrotation Yrotation Zrotation
					JOINT RightToeBase
					{
						OFFSET -0.943001 -26.722004 15.023500
						CHANNELS 3 Xrotation Yrotation Zrotation
						End Site
						{
							OFFSET 0 0 0
						}
					}
				}
			}
		}
	}
	JOINT Hips_virtual
	{
		OFFSET 0.000000 0.000000 0.000000
		CHANNELS 3 Xrotation Yrotation Zrotation
		JOINT Hips
		{
			OFFSET -0.000000 -0.000000 -0.000000
			CHANNELS 3 Xrotation Yrotation Zrotation
			JOINT Spine
			{
				OFFSET 0.000000 10.199997 -0.299500
				CHANNELS 3 Xrotation Yrotation Zrotation
				JOINT Spine1
				{
					OFFSET 0.000000 11.900002 -1.516600
					CHANNELS 3 Xrotation Yrotation Zrotation
					JOINT Spine2
					{
						OFFSET 0.000000 13.600006 -2.842500
						CHANNELS 3 Xrotation Yrotation Zrotation
						JOINT Neck_virtual
						{
							OFFSET 0.000000 0.000000 0.000000
							CHANNELS 3 Xrotation Yrotation Zrotation
							JOINT Neck
							{
								OFFSET 0.000000 9.624100 -2.890100
								CHANNELS 3 Xrotation Yrotation Zrotation
								JOINT Head
								{
									OFFSET 0.000000 14.068802 -1.351900
									CHANNELS 3 Xrotation Yrotation Zrotation
									End Site
									{
										OFFSET 0 0 0
									}
								}
							}
						}
						JOINT LeftShoulder_virtual
						{
							OFFSET 0.000000 0.000000 0.000000
							CHANNELS 3 Xrotation Yrotation Zrotation
							JOINT LeftShoulder
							{
								OFFSET 15.263000 10.923401 -0.547700
								CHANNELS 3 Xrotation Yrotation Zrotation
								JOINT LeftArm
								{
									OFFSET 25.438599 -2.830597 -13.032500
									CHANNELS 3 Xrotation Yrotation Zrotation
									JOINT LeftForeArm
									{
										OFFSET 29.960503 0.000000 0.000000
										CHANNELS 3 Xrotation Yrotation Zrotation
										JOINT LeftHand
										{
											OFFSET 27.849251 0.000000 0.000000
											CHANNELS 3 Xrotation Yrotation Zrotation
											End Site
											{
												OFFSET 0 0 0
											}
										}
									}
								}
							}
						}
						JOINT RightShoulder_virtual
						{
							OFFSET 0.000000 0.000000 0.000000
							CHANNELS 3 Xrotation Yrotation Zrotation
							JOINT RightShoulder
							{
								OFFSET -15.263000 10.923401 -0.547700
								CHANNELS 3 Xrotation Yrotation Zrotation
								JOINT RightArm
								{
									OFFSET -25.438599 -2.830597 -13.032500
									CHANNELS 3 Xrotation Yrotation Zrotation
									JOINT RightForeArm
									{
										OFFSET -29.960503 0.000000 0.000000
										CHANNELS 3 Xrotation Yrotation Zrotation
										JOINT RightHand
										{
											OFFSET -27.849251 0.000000 0.000000
											CHANNELS 3 Xrotation Yrotation Zrotation
											End Site
											{
												OFFSET 0 0 0
											}
										}
									}
								}
							}
						}
					}
				}
			}
		}
	}
}
MOTION
Frames: 4
Frame Time: 0.03333333
2.621918 80.455513 -4.399971 0.000000 0.000000 0.000000 2.972160 -14.002345 2.971121 -39.315576 5.415367 19.796226 54.605850 -4.575910 -1.396339 -2.804039 -3.800022 -10.937730 0.000000 0.000000 0.000000 -1.820160 8.669213 -0.617499 -33.391828 -0.912696 -15.125505 54.447198 3.635671 -0.136677 -6.861249 -0.035307 14.464199 0.000000 0.000000 0.000000 1.802531 5.685656 0.929201 -13.682548 3.617693 0.516193 25.121659 0.010125 1.021242 14.134196 -0.503368 0.045861 0.000000 0.000000 0.000000 14.798191 0.369503 -0.974964 4.368688 -0.709256 0.231661 0.000000 0.000000 0.000000 14.182621 -0.748773 -0.179253 3.518726 -14.491810 -8.838439 -39.944941 -8.042252 -65.075823 -44.106759 -75.395699 -41.569528 0.000000 0.000000 0.000000 15.079789 1.299178 2.971832 5.216484 2.939435 17.128342 -49.405077 19.476964 50.935361 -57.966846 79.592891 52.521102 0.000000 0.000000 0.000000 
2.498617 80.774780 -4.275078 0.000000 0.000000 0.000000 3.138279 -13.956120 2.961920 -39.049820 5.471268 19.750595 54.190581 -4.604745 -1.491753 -3.152480 -3.750811 -11.073601 0.000000 0.000000 0.000000 -1.660421 8.729933 -0.602114 -33.152092 -0.932433 -15.088316 54.011790 3.599098 -0.156276 -7.197956 -0.095940 14.380465 0.000000 0.000000 0.000000 1.714237 5.558904 0.986957 -13.448986 4.417910 0.661591 24.823520 -0.027386 0.974820 13.933539 -0.523362 0.031350 0.000000 0.000000 0.000000 14.503733 0.288942 -0.974676 4.192935 -0.739159 0.222679 0.000000 0.000000 0.000000 13.991853 -0.787638 -0.272066 3.487210 -14.240106 -9.383491 -39.296469 -8.421338 -64.753376 -42.839131 -75.500242 -40.173195 0.000000 0.000000 0.000000 15.063101 1.260441 2.958959 5.306958 2.932360 17.349941 -48.564079 19.545768 50.225625 -55.397718 79.762321 49.840635 0.000000 0.000000 0.000000 
2.347501 81.115494 -4.137554 0.000000 0.000000 0.000000 3.337340 -13.885207 2.934956 -38.744026 5.549759 19.687365 53.825261 -4.617494 -1.602723 -3.447811 -3.683672 -11.221244 0.000000 0.000000 0.000000 -1.494026 8.673776 -0.617990 -32.911857 -0.975449 -15.091610 53.567763 3.539121 -0.194260 -7.539098 -0.166454 14.252608 0.000000 0.000000 0.000000 1.674871 5.389262 1.038600 -13.005006 5.214694 0.756727 24.497838 -0.068352 0.929307 13.715209 -0.545243 0.021003 0.000000 0.000000 0.000000 14.143814 0.218960 -0.977738 3.990740 -0.762475 0.208594 0.000000 0.000000 0.000000 13.823099 -0.825493 -0.322225 3.509608 -13.977921 -9.767516 -38.432259 -9.050813 -64.152019 -40.727055 -75.608049 -37.943647 0.000000 0.000000 0.000000 14.975750 1.214773 2.951638 5.346043 2.898030 17.562518 -47.700487 19.644042 49.324973 -52.381677 79.924811 46.655902 0.000000 0.000000 0.000000 
2.254413 81.413185 -4.013428 0.000000 0.000000 0.000000 3.525374 -13.817358 2.903081 -38.448549 5.626140 19.618830 53.435927 -4.630276 -1.706599 -3.746019 -3.621434 -11.358768 0.000000 0.000000 0.000000 -1.328965 8.554880 -0.617671 -32.674102 -1.040231 -15.082967 53.054229 3.471499 -0.221168 -7.922972 -0.253303 14.130306 0.000000 0.000000 0.000000 1.612084 5.098727 1.082955 -12.566616 5.808804 0.784318 24.135969 -0.135407 0.874463 13.473227 -0.577192 0.006853 0.000000 0.000000 0.000000 13.740446 0.121967 -0.994287 3.774939 -0.799391 0.183756 0.000000 0.000000 0.000000 13.672936 -0.861827 -0.336316 3.576115 -13.710563 -10.010105 -37.420049 -9.905897 -63.268227 -37.861887 -75.692102 -34.952482 0.000000 0.000000 0.000000 14.846068 1.156709 2.938218 5.364341 2.836648 17.734711 -46.794579 19.783129 48.266157 -49.056536 80.095634 43.121774 0.000000 0.000000 0.000000 
